<svg width="24" height="24" viewBox="0 0 24 24" fill="none" xmlns="http://www.w3.org/2000/svg">
<ellipse cx="12.0003" cy="13.1277" rx="2.78642" ry="2.79691" stroke="#A9A9A9" stroke-width="2"/>
<path d="M8.01813 5.31932L8.96024 5.65463L8.01813 5.31932ZM8.52224 4.31379L7.87974 3.5475L7.87974 3.5475L8.52224 4.31379ZM15.8763 5.26694L14.9257 5.57734L14.9345 5.60412L14.9447 5.63035L15.8763 5.26694ZM15.8763 5.26692L16.8269 4.95652L16.8182 4.92975L16.808 4.90351L15.8763 5.26692ZM15.3594 4.30296L15.9888 3.52584L15.9888 3.52584L15.3594 4.30296ZM15.2253 4.21134L15.7206 3.3426L15.7206 3.3426L15.2253 4.21134ZM8.65824 4.21783L8.15175 3.35559L8.15175 3.35559L8.65824 4.21783ZM16.3413 6.61653L17.3211 6.41637L16.3413 6.61653ZM16.4887 7.11268L17.1211 6.33803L16.4887 7.11268ZM7.60993 6.61921L6.62686 6.43598L7.60993 6.61921ZM7.4712 7.11159L6.83214 6.34242L7.4712 7.11159ZM8.96024 5.65463C9.06533 5.35938 9.12121 5.20564 9.171 5.0997C9.21216 5.01211 9.21253 5.04 9.16473 5.08008L7.87974 3.5475C7.62353 3.76232 7.47041 4.01605 7.3609 4.24908C7.26002 4.46375 7.16807 4.72541 7.07603 4.98401L8.96024 5.65463ZM8.593 6.80243C8.63481 6.57809 8.74665 6.25475 8.96024 5.65463L7.07603 4.98401C6.88669 5.51598 6.70474 6.0181 6.62686 6.43598L8.593 6.80243ZM4.8 8.15775H7.07191V6.15775H4.8V8.15775ZM4 8.95775C4 8.51593 4.35817 8.15775 4.8 8.15775V6.15775C3.2536 6.15775 2 7.41135 2 8.95775H4ZM4 18.1201V8.95775H2V18.1201H4ZM4.8 18.9201C4.35817 18.9201 4 18.5619 4 18.1201H2C2 19.6665 3.2536 20.9201 4.8 20.9201V18.9201ZM19.2 18.9201H4.8V20.9201H19.2V18.9201ZM20 18.1201C20 18.5619 19.6418 18.9201 19.2 18.9201V20.9201C20.7464 20.9201 22 19.6665 22 18.1201H20ZM20 8.95775V18.1201H22V8.95775H20ZM19.2 8.15775C19.6418 8.15775 20 8.51593 20 8.95775H22C22 7.41136 20.7464 6.15775 19.2 6.15775V8.15775ZM16.8861 8.15775H19.2V6.15775H16.8861V8.15775ZM14.9447 5.63035C15.19 6.25923 15.3153 6.59013 15.3615 6.8167L17.3211 6.41637C17.2321 5.98089 17.0242 5.45787 16.808 4.90353L14.9447 5.63035ZM14.9257 5.57732L14.9257 5.57734L16.827 4.95654L16.8269 4.95652L14.9257 5.57732ZM14.7301 5.08008C14.6831 5.04207 14.6826 5.01539 14.7246 5.09874C14.7757 5.1999 14.8342 5.34691 14.9447 5.63034L16.808 4.90351C16.7112 4.65549 16.6142 4.40392 16.5101 4.19766C16.397 3.97358 16.2417 3.73065 15.9888 3.52584L14.7301 5.08008ZM14.7301 5.08008L14.7301 5.08008L15.9888 3.52584C15.9045 3.45759 15.8148 3.39631 15.7206 3.3426L14.7301 5.08008ZM14.1394 5.08008C14.4437 5.08008 14.6019 5.08114 14.7147 5.09193C14.8076 5.10083 14.7825 5.10999 14.7301 5.08008L15.7206 3.3426C15.4379 3.18143 15.1551 3.12496 14.9053 3.10104C14.6753 3.07902 14.4056 3.08008 14.1394 3.08008V5.08008ZM9.77459 5.08008H14.1394V3.08008H9.77459V5.08008ZM9.16473 5.08008C9.11095 5.11167 9.0848 5.10197 9.18112 5.09256C9.29762 5.08118 9.4612 5.08008 9.77459 5.08008V3.08008C9.5001 3.08008 9.22276 3.07898 8.98669 3.10203C8.73042 3.12707 8.44005 3.18624 8.15175 3.35559L9.16473 5.08008ZM9.16473 5.08008L9.16474 5.08008L8.15175 3.35559C8.0559 3.41189 7.96492 3.47608 7.87974 3.5475L9.16473 5.08008ZM16.8861 6.15775C16.8267 6.15775 16.7856 6.15773 16.7517 6.15718C16.7169 6.15662 16.7071 6.1557 16.7103 6.15598C16.7109 6.15603 16.7546 6.15936 16.8185 6.17774C16.8861 6.19718 17.0018 6.24066 17.1211 6.33803L15.8563 7.88733C16.1338 8.11388 16.4437 8.14024 16.5348 8.14826C16.6532 8.15869 16.7916 8.15775 16.8861 8.15775V6.15775ZM15.3615 6.8167C15.3891 6.95178 15.4198 7.10476 15.4532 7.22604C15.4704 7.28852 15.4983 7.38063 15.5431 7.4776C15.5841 7.56653 15.6747 7.73914 15.8563 7.88733L17.1211 6.33803C17.2016 6.40377 17.2562 6.47101 17.291 6.52127C17.3256 6.57124 17.3471 6.61371 17.3589 6.63927C17.3805 6.68597 17.3865 6.71325 17.3814 6.69492C17.3776 6.68097 17.3708 6.65353 17.3598 6.60263C17.3489 6.55265 17.3368 6.49334 17.3211 6.41637L15.3615 6.8167ZM6.62686 6.43598C6.61265 6.51221 6.60176 6.57055 6.59197 6.61963C6.582 6.66965 6.57596 6.69579 6.5727 6.70834C6.56831 6.72523 6.57445 6.6959 6.59648 6.64691C6.60853 6.62011 6.63006 6.5767 6.66472 6.52588C6.6997 6.47459 6.75351 6.40775 6.83214 6.34242L8.11025 7.88075C8.2894 7.7319 8.37888 7.55981 8.42056 7.46711C8.46515 7.36794 8.4921 7.27419 8.50852 7.21093C8.54026 7.08867 8.56823 6.93532 8.593 6.80243L6.62686 6.43598ZM7.07191 8.15775C7.16657 8.15775 7.30638 8.15873 7.42613 8.14797C7.51982 8.13955 7.83213 8.11182 8.11025 7.88075L6.83214 6.34242C6.95092 6.24374 7.06699 6.19898 7.13615 6.1787C7.20121 6.15962 7.24599 6.1561 7.24716 6.15599C7.25087 6.15566 7.24143 6.1566 7.2067 6.15717C7.1728 6.15773 7.13165 6.15775 7.07191 6.15775V8.15775Z" fill="#A9A9A9"/>
</svg>
