<svg width="24" height="24" viewBox="0 0 24 24" fill="none" xmlns="http://www.w3.org/2000/svg">
<path d="M16.5659 7.32353L17.4596 7.43009L16.5659 7.32353ZM16.4235 7.21115L16.7346 8.05569L16.4235 7.21115ZM21.9895 11.9494L22.2364 12.8149L21.9895 11.9494ZM10.7913 2.16976L11.6652 2.3849L10.7913 2.16976ZM10.5631 1.15132C5.22199 1.85525 1.1 6.4242 1.1 11.9574H2.9C2.9 7.33925 6.34085 3.52335 10.7983 2.93589L10.5631 1.15132ZM1.1 11.9574C1.1 17.9773 5.9801 22.8574 12 22.8574V21.0574C6.97421 21.0574 2.9 16.9831 2.9 11.9574H1.1ZM12 22.8574C18.0199 22.8574 22.9 17.9773 22.9 11.9574H21.1C21.1 16.9831 17.0258 21.0574 12 21.0574V22.8574ZM21.7425 11.0839C21.4484 11.1679 21.1369 11.2131 20.8134 11.2131V13.0131C21.3056 13.0131 21.7832 12.9442 22.2364 12.8149L21.7425 11.0839ZM20.8134 11.2131C18.9479 11.2131 17.4356 9.70083 17.4356 7.83534H15.6356C15.6356 10.6949 17.9538 13.0131 20.8134 13.0131V11.2131ZM17.4356 7.83534C17.4356 7.69783 17.4438 7.56262 17.4596 7.43009L15.6722 7.21698C15.648 7.42007 15.6356 7.62644 15.6356 7.83534H17.4356ZM16.1125 6.3666C15.7499 6.50014 15.3571 6.57348 14.9452 6.57348V8.37348C15.5725 8.37348 16.1757 8.26151 16.7346 8.05569L16.1125 6.3666ZM14.9452 6.57348C13.0797 6.57348 11.5675 5.06123 11.5675 3.19577H9.7675C9.7675 6.05534 12.0856 8.37348 14.9452 8.37348V6.57348ZM11.5675 3.19577C11.5675 2.91517 11.6015 2.64374 11.6652 2.3849L9.91743 1.95463C9.81932 2.35318 9.7675 2.76904 9.7675 3.19577H11.5675ZM17.4596 7.43009C17.5484 6.68463 16.8167 6.10726 16.1125 6.3666L16.7346 8.05569C16.1776 8.26083 15.6019 7.80669 15.6722 7.21698L17.4596 7.43009ZM22.9 11.9569C22.8997 11.3527 22.3214 10.9188 21.7425 11.0839L22.2364 12.8149C21.668 12.977 21.1003 12.551 21.1 11.9578L22.9 11.9569ZM10.7983 2.93589C10.2121 3.01315 9.79 2.47226 9.91743 1.95463L11.6652 2.3849C11.8267 1.72887 11.2907 1.05543 10.5631 1.15132L10.7983 2.93589Z" fill="#A9A9A9"/>
<circle cx="7.31375" cy="9.56839" r="0.611111" fill="#A9A9A9" stroke="#A9A9A9"/>
<circle cx="12.8675" cy="11.8565" r="0.611111" fill="#A9A9A9" stroke="#A9A9A9"/>
<circle cx="9.14285" cy="15.1751" r="0.611111" fill="#A9A9A9" stroke="#A9A9A9"/>
<circle cx="15.1106" cy="16.6121" r="0.611111" fill="#A9A9A9" stroke="#A9A9A9"/>
</svg>
