<svg width="25" height="24" viewBox="0 0 25 24" fill="none" xmlns="http://www.w3.org/2000/svg">
<path fill-rule="evenodd" clip-rule="evenodd" d="M17.0317 5.23662C17.0317 4.27562 16.2527 3.49658 15.2917 3.49658H8.77177C7.81077 3.49658 7.03173 4.27562 7.03173 5.23662C7.03173 6.19761 6.25269 6.97665 5.2917 6.97665H5.03173C3.92717 6.97665 3.03174 7.87208 3.03174 8.97665V20.0001C3.03174 21.1046 3.92717 22.0001 5.03174 22.0001H19.0317C20.1363 22.0001 21.0317 21.1046 21.0317 20.0001V8.97666C21.0317 7.87209 20.1363 6.97665 19.0317 6.97665H18.7718C17.8108 6.97665 17.0317 6.19761 17.0317 5.23662Z" fill="#A9A9A9"/>
<path d="M8.77177 4.49658H15.2917V2.49658H8.77177V4.49658ZM5.03173 7.97666H5.2917V5.97665H5.03173V7.97666ZM4.03174 20.0001V8.97665H2.03174V20.0001H4.03174ZM19.0317 21.0001H5.03174V23.0001H19.0317V21.0001ZM20.0317 8.97666V20.0001H22.0317V8.97666H20.0317ZM18.7718 7.97666H19.0317V5.97665H18.7718V7.97666ZM18.7718 5.97665C18.3631 5.97665 18.0317 5.64533 18.0317 5.23662H16.0317C16.0317 6.7499 17.2585 7.97666 18.7718 7.97666V5.97665ZM22.0317 8.97666C22.0317 7.3198 20.6886 5.97665 19.0317 5.97665V7.97666C19.584 7.97666 20.0317 8.42437 20.0317 8.97666H22.0317ZM19.0317 23.0001C20.6886 23.0001 22.0317 21.6569 22.0317 20.0001H20.0317C20.0317 20.5524 19.584 21.0001 19.0317 21.0001V23.0001ZM2.03174 20.0001C2.03174 21.6569 3.37488 23.0001 5.03174 23.0001V21.0001C4.47945 21.0001 4.03174 20.5524 4.03174 20.0001H2.03174ZM5.03173 5.97665C3.37488 5.97665 2.03174 7.3198 2.03174 8.97665H4.03174C4.03174 8.42437 4.47945 7.97666 5.03173 7.97666V5.97665ZM6.03173 5.23662C6.03173 5.64533 5.70041 5.97665 5.2917 5.97665V7.97666C6.80498 7.97666 8.03173 6.7499 8.03173 5.23662H6.03173ZM15.2917 4.49658C15.7004 4.49658 16.0317 4.82791 16.0317 5.23662H18.0317C18.0317 3.72334 16.805 2.49658 15.2917 2.49658V4.49658ZM8.77177 2.49658C7.25849 2.49658 6.03173 3.72334 6.03173 5.23662H8.03173C8.03173 4.82791 8.36306 4.49658 8.77177 4.49658V2.49658Z" fill="#A9A9A9"/>
<rect x="4.85254" y="2" width="14.3583" height="1.97234" rx="0.98617" fill="#A9A9A9" stroke="#A9A9A9"/>
<path fill-rule="evenodd" clip-rule="evenodd" d="M10.5752 7.79532C10.5812 7.72429 10.5159 7.66611 10.4473 7.68545C7.71404 8.45585 5.89207 11.1383 6.27912 14.0349C6.70338 17.2099 9.62118 19.4398 12.7962 19.0156C15.9712 18.5913 18.2012 15.6735 17.7769 12.4985C17.7765 12.4953 17.7732 12.4935 17.7703 12.4947C17.5636 12.5848 17.3411 12.648 17.1065 12.6793C15.7483 12.8608 14.5001 11.9069 14.3187 10.5487C14.3088 10.4746 14.3022 10.4009 14.299 10.3277C14.2955 10.2494 14.2094 10.1983 14.139 10.2328C13.905 10.3472 13.649 10.4265 13.3767 10.4629C12.0185 10.6444 10.7703 9.69046 10.5889 8.33227C10.5646 8.15055 10.5606 7.97081 10.5752 7.79532Z" fill="#FAFAFA"/>
<path d="M14.299 10.3277L15.0482 10.2943L14.299 10.3277ZM14.139 10.2328L13.8094 9.55909L14.139 10.2328ZM17.7703 12.4947L18.0699 13.1823L17.7703 12.4947ZM10.5752 7.79532L9.82782 7.73306L10.5752 7.79532ZM10.2439 6.96357C7.15644 7.8338 5.09854 10.8625 5.53573 14.1342L7.02251 13.9355C6.6856 11.4142 8.27163 9.07791 10.6508 8.40732L10.2439 6.96357ZM5.53573 14.1342C6.01484 17.7198 9.30995 20.2381 12.8955 19.759L12.6969 18.2722C9.93241 18.6416 7.39191 16.7 7.02251 13.9355L5.53573 14.1342ZM12.8955 19.759C16.4811 19.2799 18.9994 15.9848 18.5203 12.3992L17.0335 12.5978C17.4029 15.3623 15.4613 17.9028 12.6969 18.2722L12.8955 19.759ZM17.4707 11.8072C17.3272 11.8697 17.1721 11.9139 17.0072 11.9359L17.2059 13.4227C17.5101 13.382 17.8 13.2999 18.0699 13.1823L17.4707 11.8072ZM17.0072 11.9359C16.0595 12.0625 15.1887 11.397 15.062 10.4493L13.5753 10.648C13.8116 12.4168 15.4371 13.659 17.2059 13.4227L17.0072 11.9359ZM15.062 10.4493C15.0551 10.3972 15.0505 10.3455 15.0482 10.2943L13.5497 10.3611C13.554 10.4564 13.5624 10.5521 13.5753 10.648L15.062 10.4493ZM13.8094 9.55909C13.647 9.63851 13.4686 9.69392 13.2773 9.71948L13.476 11.2063C13.8293 11.1591 14.163 11.0559 14.4685 10.9065L13.8094 9.55909ZM13.2773 9.71948C12.3297 9.84611 11.4589 9.18056 11.3323 8.23294L9.84547 8.43161C10.0818 10.2004 11.7073 11.4426 13.476 11.2063L13.2773 9.71948ZM11.3323 8.23294C11.3152 8.10512 11.3125 7.97956 11.3226 7.85757L9.82782 7.73306C9.80875 7.96206 9.81398 8.19598 9.84547 8.43161L11.3323 8.23294ZM15.0482 10.2943C15.0207 9.67585 14.3647 9.28743 13.8094 9.55909L14.4685 10.9065C14.0541 11.1092 13.5703 10.8229 13.5497 10.3611L15.0482 10.2943ZM18.5203 12.3987C18.4535 11.9011 17.9294 11.6073 17.4707 11.8072L18.0699 13.1823C17.617 13.3796 17.0996 13.0896 17.0336 12.5983L18.5203 12.3987ZM10.6508 8.40732C10.1712 8.54249 9.7942 8.13673 9.82782 7.73306L11.3226 7.85757C11.3681 7.31186 10.8606 6.78973 10.2439 6.96357L10.6508 8.40732Z" fill="#FAFAFA"/>
<circle cx="9.15039" cy="12.2534" r="0.644445" transform="rotate(-7.61097 9.15039 12.2534)" fill="#A9A9A9"/>
<circle cx="12.5186" cy="13.142" r="0.644445" transform="rotate(-7.61097 12.5186 13.142)" fill="#A9A9A9"/>
<circle cx="10.6328" cy="15.3361" r="0.644445" transform="rotate(-7.61097 10.6328 15.3361)" fill="#A9A9A9"/>
<circle cx="14.1738" cy="15.7036" r="0.644445" transform="rotate(-7.61097 14.1738 15.7036)" fill="#A9A9A9"/>
</svg>
