<svg width="25" height="24" viewBox="0 0 25 24" fill="none" xmlns="http://www.w3.org/2000/svg">
<path d="M14.4103 10.3277L15.1596 10.2943L14.4103 10.3277ZM17.8816 12.4947L18.1812 13.1823L17.8816 12.4947ZM10.6866 7.79532L9.93915 7.73306L10.6866 7.79532ZM10.3552 6.96357C7.26777 7.8338 5.20987 10.8625 5.64705 14.1342L7.13384 13.9355C6.79693 11.4142 8.38296 9.07791 10.7621 8.40732L10.3552 6.96357ZM5.64705 14.1342C6.12617 17.7198 9.42128 20.2381 13.0069 19.759L12.8082 18.2722C10.0437 18.6416 7.50324 16.7 7.13384 13.9355L5.64705 14.1342ZM13.0069 19.759C16.5925 19.2799 19.1108 15.9848 18.6317 12.3992L17.1449 12.5978C17.5143 15.3623 15.5727 17.9028 12.8082 18.2722L13.0069 19.759ZM17.5821 11.8072C17.4386 11.8697 17.2834 11.9139 17.1185 11.9359L17.3172 13.4227C17.6215 13.382 17.9113 13.2999 18.1812 13.1823L17.5821 11.8072ZM17.1185 11.9359C16.1709 12.0625 15.3 11.397 15.1734 10.4493L13.6866 10.648C13.9229 12.4168 15.5484 13.659 17.3172 13.4227L17.1185 11.9359ZM15.1734 10.4493C15.1664 10.3972 15.1618 10.3455 15.1596 10.2943L13.6611 10.3611C13.6653 10.4564 13.6738 10.5521 13.6866 10.648L15.1734 10.4493ZM13.9207 9.55909C13.7584 9.63851 13.58 9.69392 13.3887 9.71948L13.5873 11.2063C13.9407 11.1591 14.2744 11.0559 14.5799 10.9065L13.9207 9.55909ZM13.3887 9.71948C12.4411 9.84611 11.5702 9.18056 11.4436 8.23294L9.95679 8.43161C10.1931 10.2004 11.8186 11.4426 13.5873 11.2063L13.3887 9.71948ZM11.4436 8.23294C11.4265 8.10512 11.4238 7.97956 11.434 7.85757L9.93915 7.73306C9.92008 7.96206 9.92531 8.19598 9.95679 8.43161L11.4436 8.23294ZM15.1596 10.2943C15.132 9.67585 14.476 9.28743 13.9207 9.55909L14.5799 10.9065C14.1654 11.1092 13.6816 10.8229 13.6611 10.3611L15.1596 10.2943ZM18.6316 12.3987C18.5648 11.9011 18.0407 11.6073 17.5821 11.8072L18.1812 13.1823C17.7283 13.3796 17.2109 13.0896 17.1449 12.5983L18.6316 12.3987ZM10.7621 8.40732C10.2826 8.54249 9.90553 8.13673 9.93915 7.73306L11.434 7.85757C11.4794 7.31186 10.972 6.78973 10.3552 6.96357L10.7621 8.40732Z" fill="#A9A9A9"/>
<circle cx="9.26172" cy="12.2534" r="0.644445" transform="rotate(-7.61097 9.26172 12.2534)" fill="#A9A9A9"/>
<circle cx="12.6299" cy="13.142" r="0.644445" transform="rotate(-7.61097 12.6299 13.142)" fill="#A9A9A9"/>
<circle cx="10.7441" cy="15.3361" r="0.644445" transform="rotate(-7.61097 10.7441 15.3361)" fill="#A9A9A9"/>
<circle cx="14.2852" cy="15.7036" r="0.644445" transform="rotate(-7.61097 14.2852 15.7036)" fill="#A9A9A9"/>
<path d="M8.8831 4.49658H15.403V2.49658H8.8831V4.49658ZM5.14306 7.97666H5.40302V5.97665H5.14306V7.97666ZM4.14307 20.0001V8.97665H2.14307V20.0001H4.14307ZM19.1431 21.0001H5.14307V23.0001H19.1431V21.0001ZM20.1431 8.97666V20.0001H22.1431V8.97666H20.1431ZM18.8831 7.97666H19.1431V5.97665H18.8831V7.97666ZM18.8831 5.97665C18.4744 5.97665 18.1431 5.64533 18.1431 5.23662H16.1431C16.1431 6.7499 17.3698 7.97666 18.8831 7.97666V5.97665ZM22.1431 8.97666C22.1431 7.3198 20.7999 5.97665 19.1431 5.97665V7.97666C19.6954 7.97666 20.1431 8.42437 20.1431 8.97666H22.1431ZM19.1431 23.0001C20.7999 23.0001 22.1431 21.6569 22.1431 20.0001H20.1431C20.1431 20.5524 19.6954 21.0001 19.1431 21.0001V23.0001ZM2.14307 20.0001C2.14307 21.6569 3.48621 23.0001 5.14307 23.0001V21.0001C4.59078 21.0001 4.14307 20.5524 4.14307 20.0001H2.14307ZM5.14306 5.97665C3.48621 5.97665 2.14307 7.3198 2.14307 8.97665H4.14307C4.14307 8.42437 4.59078 7.97666 5.14306 7.97666V5.97665ZM6.14306 5.23662C6.14306 5.64533 5.81173 5.97665 5.40302 5.97665V7.97666C6.9163 7.97666 8.14306 6.7499 8.14306 5.23662H6.14306ZM15.403 4.49658C15.8117 4.49658 16.1431 4.82791 16.1431 5.23662H18.1431C18.1431 3.72334 16.9163 2.49658 15.403 2.49658V4.49658ZM8.8831 2.49658C7.36982 2.49658 6.14306 3.72334 6.14306 5.23662H8.14306C8.14306 4.82791 8.47439 4.49658 8.8831 4.49658V2.49658Z" fill="#A9A9A9"/>
<rect x="4.96387" y="2" width="14.3583" height="1.97234" rx="0.98617" fill="#A9A9A9" stroke="#A9A9A9"/>
</svg>
