<svg width="24" height="25" viewBox="0 0 24 25" fill="none" xmlns="http://www.w3.org/2000/svg">
<path fill-rule="evenodd" clip-rule="evenodd" d="M10.7913 2.69296C10.8084 2.62376 10.7514 2.55748 10.6807 2.5668C5.78142 3.21249 2 7.40492 2 12.4805C2 18.0034 6.47715 22.4805 12 22.4805C17.5228 22.4805 22 18.0034 22 12.4805C22 12.4751 21.9947 12.4711 21.9895 12.4726C21.6158 12.5792 21.2212 12.6363 20.8134 12.6363C18.4508 12.6363 16.5356 10.7211 16.5356 8.35853C16.5356 8.18533 16.5459 8.01454 16.5659 7.84673C16.5752 7.76885 16.4971 7.70724 16.4235 7.73434C15.9628 7.90402 15.4648 7.99667 14.9452 7.99667C12.5827 7.99667 10.6675 6.08148 10.6675 3.71897C10.6675 3.3653 10.7104 3.02165 10.7913 2.69296Z" fill="#FB9746"/>
<path d="M16.5659 7.84673L17.4596 7.95328L16.5659 7.84673ZM16.4235 7.73434L16.7346 8.57889L16.4235 7.73434ZM21.9895 12.4726L22.2364 13.3381L21.9895 12.4726ZM10.7913 2.69296L11.6652 2.90809L10.7913 2.69296ZM10.5631 1.67451C5.22199 2.37844 1.1 6.9474 1.1 12.4805H2.9C2.9 7.86244 6.34085 4.04655 10.7983 3.45908L10.5631 1.67451ZM1.1 12.4805C1.1 18.5005 5.9801 23.3805 12 23.3805V21.5805C6.97421 21.5805 2.9 17.5063 2.9 12.4805H1.1ZM12 23.3805C18.0199 23.3805 22.9 18.5005 22.9 12.4805H21.1C21.1 17.5063 17.0258 21.5805 12 21.5805V23.3805ZM21.7425 11.6071C21.4484 11.6911 21.1369 11.7363 20.8134 11.7363V13.5363C21.3056 13.5363 21.7832 13.4674 22.2364 13.3381L21.7425 11.6071ZM20.8134 11.7363C18.9479 11.7363 17.4356 10.224 17.4356 8.35853H15.6356C15.6356 11.2181 17.9538 13.5363 20.8134 13.5363V11.7363ZM17.4356 8.35853C17.4356 8.22102 17.4438 8.08581 17.4596 7.95328L15.6722 7.74017C15.648 7.94326 15.6356 8.14964 15.6356 8.35853H17.4356ZM16.1125 6.8898C15.7499 7.02334 15.3571 7.09667 14.9452 7.09667V8.89667C15.5725 8.89667 16.1757 8.7847 16.7346 8.57889L16.1125 6.8898ZM14.9452 7.09667C13.0797 7.09667 11.5675 5.58442 11.5675 3.71897H9.7675C9.7675 6.57853 12.0856 8.89667 14.9452 8.89667V7.09667ZM11.5675 3.71897C11.5675 3.43836 11.6015 3.16694 11.6652 2.90809L9.91743 2.47783C9.81932 2.87637 9.7675 3.29223 9.7675 3.71897H11.5675ZM17.4596 7.95328C17.5484 7.20782 16.8167 6.63046 16.1125 6.8898L16.7346 8.57889C16.1776 8.78402 15.6019 8.32988 15.6722 7.74017L17.4596 7.95328ZM22.9 12.4801C22.8997 11.8759 22.3214 11.442 21.7425 11.6071L22.2364 13.3381C21.668 13.5002 21.1003 13.0742 21.1 12.481L22.9 12.4801ZM10.7983 3.45908C10.2121 3.53635 9.79 2.99545 9.91743 2.47783L11.6652 2.90809C11.8267 2.25206 11.2907 1.57862 10.5631 1.67451L10.7983 3.45908Z" fill="#FB9746"/>
<circle cx="7.31375" cy="10.0916" r="0.611111" fill="#C95614" stroke="#C95614"/>
<circle cx="12.8675" cy="12.3797" r="0.611111" fill="#C95614" stroke="#C95614"/>
<circle cx="9.14285" cy="15.6983" r="0.611111" fill="#C95614" stroke="#C95614"/>
<circle cx="15.1106" cy="17.1353" r="0.611111" fill="#C95614" stroke="#C95614"/>
</svg>
