<svg width="25" height="24" viewBox="0 0 25 24" fill="none" xmlns="http://www.w3.org/2000/svg">
<path d="M12.6927 2.20129L12.0706 2.98427L12.0706 2.98427L12.6927 2.20129ZM11.5927 2.20129L12.2147 2.98427L12.2147 2.98427L11.5927 2.20129ZM3.10962 8.94057L2.48758 8.15759H2.48758L3.10962 8.94057ZM2.6029 10.2056L3.60152 10.2581L3.60434 10.2044L3.60139 10.1507L2.6029 10.2056ZM10.0224 19.9999H11.0224V19.9999L10.0224 19.9999ZM10.0224 19.3882H9.02238V19.3882L10.0224 19.3882ZM14.2637 17.937H13.2637V18.937H14.2637V17.937ZM14.2637 17.937H15.2637V16.937H14.2637V17.937ZM21.686 15.5098H22.686V15.5086L21.686 15.5098ZM21.686 15.505H20.686V15.5062L21.686 15.505ZM21.6828 10.1985L20.6841 10.1474L20.6814 10.201L20.6844 10.2545L21.6828 10.1985ZM21.1757 8.94057L21.7977 8.15759L21.7977 8.15759L21.1757 8.94057ZM13.3147 1.4183C12.6127 0.860566 11.6727 0.860567 10.9706 1.4183L12.2147 2.98427C12.219 2.98088 12.2146 2.98529 12.2003 2.99048C12.1857 2.99576 12.1658 3 12.1427 3C12.1195 3 12.0996 2.99576 12.085 2.99048C12.0707 2.98529 12.0663 2.98088 12.0706 2.98427L13.3147 1.4183ZM10.9706 1.4183L2.48758 8.15759L3.73166 9.72356L12.2147 2.98427L10.9706 1.4183ZM2.48758 8.15759C1.78577 8.71514 1.56608 9.5637 1.60441 10.2605L3.60139 10.1507C3.58775 9.90274 3.67579 9.76795 3.73166 9.72356L2.48758 8.15759ZM1.60428 10.1531C1.6015 10.2059 1.6001 10.259 1.6001 10.3123H3.6001C3.6001 10.294 3.60058 10.2759 3.60152 10.2581L1.60428 10.1531ZM1.6001 10.3123V15.5098H3.6001V10.3123H1.6001ZM1.6001 15.5098V15.937H3.6001V15.5098H1.6001ZM1.6001 15.937V19.9999H3.6001V15.937H1.6001ZM1.6001 19.9999C1.6001 21.6568 2.94324 22.9999 4.6001 22.9999V20.9999C4.04781 20.9999 3.6001 20.5522 3.6001 19.9999H1.6001ZM4.6001 22.9999H8.02239V20.9999H4.6001V22.9999ZM8.02239 22.9999C9.67924 22.9999 11.0224 21.6568 11.0224 19.9999H9.02239C9.02239 20.5522 8.57467 20.9999 8.02239 20.9999V22.9999ZM11.0224 19.9999L11.0224 19.3882L9.02238 19.3882L9.02239 20L11.0224 19.9999ZM11.0224 19.3882V16.4184H9.02238V19.3882H11.0224ZM11.0224 16.4184C11.0224 15.7995 11.5241 15.2978 12.143 15.2978V13.2978C10.4195 13.2978 9.02238 14.6949 9.02238 16.4184H11.0224ZM12.143 15.2978C12.762 15.2978 13.2637 15.7995 13.2637 16.4184H15.2637C15.2637 14.6949 13.8665 13.2978 12.143 13.2978V15.2978ZM13.2637 16.4184V17.937H15.2637V16.4184H13.2637ZM14.2637 18.937H14.2637V16.937H14.2637V18.937ZM13.2637 17.937V19.9999H15.2637V17.937H13.2637ZM13.2637 19.9999C13.2637 21.6568 14.6068 22.9999 16.2637 22.9999V20.9999C15.7114 20.9999 15.2637 20.5522 15.2637 19.9999H13.2637ZM16.2637 22.9999H19.686V20.9999H16.2637V22.9999ZM19.686 22.9999C21.3428 22.9999 22.686 21.6568 22.686 19.9999H20.686C20.686 20.5522 20.2383 20.9999 19.686 20.9999V22.9999ZM22.686 19.9999V15.5098H20.686V19.9999H22.686ZM22.686 15.5086L22.686 15.5038L20.686 15.5062L20.686 15.511L22.686 15.5086ZM22.686 15.505V10.3123H20.686V15.505H22.686ZM22.686 10.3123C22.686 10.2554 22.6844 10.1988 22.6812 10.1425L20.6844 10.2545C20.6854 10.2735 20.686 10.2928 20.686 10.3123H22.686ZM22.6815 10.2497C22.717 9.55552 22.4961 8.71239 21.7977 8.15759L20.5537 9.72356C20.6092 9.76771 20.6967 9.90114 20.6841 10.1474L22.6815 10.2497ZM21.7977 8.15759L13.3147 1.4183L12.0706 2.98427L20.5537 9.72356L21.7977 8.15759Z" fill="#A9A9A9"/>
</svg>
