<svg width="13" height="13" viewBox="0 0 13 13" fill="none" xmlns="http://www.w3.org/2000/svg">
<g clip-path="url(#clip0_2007_7474)">
<path d="M6.4488 1.60853C6.48915 1.60559 6.51413 1.65154 6.4908 1.68459C6.09971 2.23879 5.87012 2.91536 5.87012 3.6452C5.87027 5.52466 7.39393 7.04837 9.27344 7.04852C10.0035 7.04852 10.6798 6.81818 11.2341 6.42687C11.2671 6.40354 11.3131 6.4285 11.3101 6.46885C11.1391 8.819 9.17802 10.6724 6.78418 10.6725C4.27787 10.6725 2.24609 8.6407 2.24609 6.13446C2.24623 3.74106 4.09909 1.78007 6.4488 1.60853Z" fill="#F0F0F0"/>
<path d="M5.87012 3.6452L5.44074 3.6452L5.44074 3.64524L5.87012 3.6452ZM9.27344 7.04852L9.2734 7.4779H9.27344V7.04852ZM6.78418 10.6725L6.78418 11.1019L6.7842 11.1019L6.78418 10.6725ZM2.24609 6.13446L1.81672 6.13443V6.13446H2.24609ZM11.3101 6.46885L10.8819 6.43768L11.3101 6.46885ZM6.4908 1.68459L6.84162 1.93215L6.4908 1.68459ZM6.4488 1.60853L6.41754 1.1803L6.4488 1.60853ZM6.4908 1.68459L6.13998 1.43702C5.6994 2.06137 5.44074 2.82394 5.44074 3.6452H5.87012H6.29949C6.29949 3.00678 6.50003 2.41621 6.84162 1.93215L6.4908 1.68459ZM5.87012 3.6452L5.44074 3.64524C5.44091 5.7618 7.15678 7.47773 9.2734 7.4779L9.27344 7.04852L9.27347 6.61915C7.63108 6.61902 6.29963 5.28752 6.29949 3.64517L5.87012 3.6452ZM9.27344 7.04852V7.4779C10.0952 7.4779 10.8576 7.2183 11.4817 6.77763L11.2341 6.42687L10.9864 6.0761C10.5021 6.41806 9.91174 6.61915 9.27344 6.61915V7.04852ZM11.3101 6.46885L10.8819 6.43768C10.7271 8.56499 8.95137 10.2431 6.78416 10.2432L6.78418 10.6725L6.7842 11.1019C9.40468 11.1018 11.5511 9.07302 11.7384 6.50001L11.3101 6.46885ZM6.78418 10.6725V10.2432C4.51501 10.2432 2.67547 8.40356 2.67547 6.13446H2.24609H1.81672C1.81672 8.87783 4.04073 11.1019 6.78418 11.1019V10.6725ZM2.24609 6.13446L2.67547 6.13448C2.67559 3.96767 4.35316 2.19204 6.48007 2.03677L6.4488 1.60853L6.41754 1.1803C3.84501 1.3681 1.81686 3.51445 1.81672 6.13443L2.24609 6.13446ZM11.2341 6.42687L11.4817 6.77763C11.2323 6.95372 10.8573 6.77561 10.8819 6.43768L11.3101 6.46885L11.7384 6.50001C11.7688 6.08139 11.3019 5.85335 10.9864 6.0761L11.2341 6.42687ZM6.4908 1.68459L6.84162 1.93215C7.06427 1.61664 6.83621 1.14973 6.41754 1.1803L6.4488 1.60853L6.48007 2.03677C6.14209 2.06144 5.96398 1.68643 6.13998 1.43702L6.4908 1.68459Z" fill="#F0F0F0"/>
</g>
<defs>
<clipPath id="clip0_2007_7474">
<rect width="12" height="12" fill="white" transform="translate(0.777344 0.139648)"/>
</clipPath>
</defs>
</svg>
