<svg width="24" height="24" viewBox="0 0 24 24" fill="none" xmlns="http://www.w3.org/2000/svg">
<path d="M5.83277 15.2766L3.90757 17.2019C3.62628 17.4832 3.46826 17.8647 3.46826 18.2625V18.8538C3.46826 19.6822 4.13984 20.3538 4.96826 20.3538H18.8647C19.6932 20.3538 20.3647 19.6822 20.3647 18.8538V17.32C20.3647 16.9222 20.2067 16.5407 19.9254 16.2594L16.6669 13.0008C16.0811 12.4151 15.1313 12.4151 14.5455 13.0008L11.1726 16.3737C10.5869 16.9595 9.63711 16.9595 9.05132 16.3737L7.95412 15.2765C7.36832 14.6907 6.41855 14.6908 5.83277 15.2766Z" stroke="#A9A9A9" stroke-width="1.8"/>
<circle cx="8.07436" cy="8.41957" r="1.78139" fill="#A9A9A9"/>
<rect x="3.25" y="3.25" width="17.5" height="17.5" rx="1.5" stroke="#A9A9A9" stroke-width="2"/>
</svg>
