<svg width="25" height="25" viewBox="0 0 25 25" fill="none" xmlns="http://www.w3.org/2000/svg">
<path d="M9.38672 14.6184L15.9442 18.4396" stroke="#A9A9A9" stroke-width="2" stroke-linecap="round" stroke-linejoin="round"/>
<path d="M15.9346 7.89771L9.38672 11.7189" stroke="#A9A9A9" stroke-width="2" stroke-linecap="round" stroke-linejoin="round"/>
<path d="M18.3203 9.12614C19.8552 9.12614 21.0995 7.88182 21.0995 6.34688C21.0995 4.81194 19.8552 3.56763 18.3203 3.56763C16.7853 3.56763 15.541 4.81194 15.541 6.34688C15.541 7.88182 16.7853 9.12614 18.3203 9.12614Z" stroke="#A9A9A9" stroke-width="2" stroke-linecap="round" stroke-linejoin="round"/>
<path d="M6.79879 15.8468C8.33373 15.8468 9.57804 14.6025 9.57804 13.0676C9.57804 11.5326 8.33373 10.2883 6.79879 10.2883C5.26385 10.2883 4.01953 11.5326 4.01953 13.0676C4.01953 14.6025 5.26385 15.8468 6.79879 15.8468Z" stroke="#A9A9A9" stroke-width="2" stroke-linecap="round" stroke-linejoin="round"/>
<path d="M18.3203 22.5678C19.8552 22.5678 21.0995 21.3235 21.0995 19.7885C21.0995 18.2536 19.8552 17.0093 18.3203 17.0093C16.7853 17.0093 15.541 18.2536 15.541 19.7885C15.541 21.3235 16.7853 22.5678 18.3203 22.5678Z" stroke="#A9A9A9" stroke-width="2" stroke-linecap="round" stroke-linejoin="round"/>
</svg>
