<svg width="34" height="34" viewBox="0 0 34 34" fill="none" xmlns="http://www.w3.org/2000/svg">
<path d="M17.331 9.93393C18.4225 9.93393 19.7907 9.19603 20.6055 8.21215C21.3434 7.32051 21.8815 6.0753 21.8815 4.83008C21.8815 4.66098 21.8661 4.49187 21.8353 4.35352C20.6209 4.39963 19.1604 5.16829 18.2842 6.19828C17.5924 6.98231 16.9621 8.21215 16.9621 9.47274C16.9621 9.65722 16.9928 9.8417 17.0082 9.90319C17.0851 9.91856 17.2081 9.93393 17.331 9.93393ZM13.4878 28.5353C14.979 28.5353 15.64 27.5361 17.5001 27.5361C19.391 27.5361 19.8061 28.5046 21.4664 28.5046C23.0959 28.5046 24.1874 26.998 25.2174 25.5222C26.3704 23.8312 26.847 22.1709 26.8777 22.094C26.7701 22.0633 23.6494 20.7873 23.6494 17.2054C23.6494 14.1 26.1091 12.7011 26.2474 12.5935C24.6179 10.2568 22.1428 10.1953 21.4664 10.1953C19.637 10.1953 18.1458 11.3021 17.2081 11.3021C16.1934 11.3021 14.856 10.2568 13.2726 10.2568C10.2594 10.2568 7.2002 12.7472 7.2002 17.4514C7.2002 20.3722 8.3378 23.4622 9.73675 25.4607C10.9358 27.1518 11.9812 28.5353 13.4878 28.5353Z" fill="white"/>
</svg>
