<svg width="26" height="26" viewBox="0 0 26 26" fill="none" xmlns="http://www.w3.org/2000/svg">
<path fill-rule="evenodd" clip-rule="evenodd" d="M13.0104 0.453125C5.9753 0.453125 0.288086 6.18227 0.288086 13.27C0.288086 18.9356 3.93208 23.7314 8.98727 25.4288C9.6193 25.5564 9.85081 25.153 9.85081 24.8137C9.85081 24.5166 9.82997 23.4981 9.82997 22.4369C6.29093 23.2009 5.55395 20.909 5.55395 20.909C4.9852 19.4236 4.1425 19.0418 4.1425 19.0418C2.98417 18.2567 4.22687 18.2567 4.22687 18.2567C5.51176 18.3416 6.18598 19.5723 6.18598 19.5723C7.32321 21.5244 9.15576 20.9728 9.89299 20.6332C9.9982 19.8056 10.3354 19.2327 10.6935 18.9145C7.87087 18.6174 4.90109 17.514 4.90109 12.5908C4.90109 11.1903 5.40629 10.0445 6.20681 9.15335C6.08051 8.83512 5.63806 7.51924 6.33337 5.75805C6.33337 5.75805 7.40759 5.41847 9.82971 7.07367C10.8667 6.79312 11.9362 6.65039 13.0104 6.64919C14.0846 6.64919 15.1797 6.79789 16.1909 7.07367C18.6133 5.41847 19.6875 5.75805 19.6875 5.75805C20.3828 7.51924 19.9401 8.83512 19.8138 9.15335C20.6354 10.0445 21.1198 11.1903 21.1198 12.5908C21.1198 17.514 18.15 18.596 15.3063 18.9145C15.7698 19.3176 16.1698 20.0814 16.1698 21.2911C16.1698 23.0098 16.149 24.3892 16.149 24.8134C16.149 25.153 16.3807 25.5564 17.0125 25.4291C22.0677 23.7312 25.7117 18.9356 25.7117 13.27C25.7325 6.18227 20.0245 0.453125 13.0104 0.453125Z" fill="#24292F"/>
</svg>
