<svg width="34" height="34" viewBox="0 0 34 34" fill="none" xmlns="http://www.w3.org/2000/svg">
<path fill-rule="evenodd" clip-rule="evenodd" d="M29.096 17.2399C29.096 16.3464 29.0158 15.4873 28.8669 14.6626H17V19.5365H23.7811C23.489 21.1115 22.6013 22.446 21.2668 23.3394V26.5009H25.3389C27.7215 24.3073 29.096 21.0771 29.096 17.2399Z" fill="#4285F4"/>
<path fill-rule="evenodd" clip-rule="evenodd" d="M17.0001 29.5532C20.4021 29.5532 23.2542 28.4249 25.339 26.5005L21.2669 23.3391C20.1386 24.0951 18.6953 24.5418 17.0001 24.5418C13.7183 24.5418 10.9406 22.3253 9.94978 19.3472H5.74023V22.6117C7.81351 26.7296 12.0746 29.5532 17.0001 29.5532Z" fill="#34A853"/>
<path fill-rule="evenodd" clip-rule="evenodd" d="M9.95012 19.3475C9.69812 18.5915 9.55494 17.7839 9.55494 16.9535C9.55494 16.123 9.69812 15.3155 9.95012 14.5595V11.2949H5.74057C4.88721 12.9959 4.40039 14.9203 4.40039 16.9535C4.40039 18.9866 4.88721 20.911 5.74057 22.612L9.95012 19.3475Z" fill="#FBBC05"/>
<path fill-rule="evenodd" clip-rule="evenodd" d="M17.0001 9.36488C18.85 9.36488 20.5109 10.0006 21.8167 11.2492L25.4306 7.63524C23.2485 5.60206 20.3963 4.35352 17.0001 4.35352C12.0746 4.35352 7.81351 7.17706 5.74023 11.295L9.94978 14.5595C10.9406 11.5813 13.7183 9.36488 17.0001 9.36488Z" fill="#EA4335"/>
</svg>
