<svg width="360" height="416" viewBox="0 0 360 416" fill="none" xmlns="http://www.w3.org/2000/svg">
<g clip-path="url(#clip0_976_7659)">
<path fill-rule="evenodd" clip-rule="evenodd" d="M108.959 148.223C108.959 153.966 104.331 158.621 98.6216 158.621C98.5251 158.621 98.4288 158.62 98.3329 158.617C98.5216 159.403 98.6216 160.224 98.6216 161.068C98.6216 166.397 94.6363 170.789 89.5 171.395V203.883C89.5 207.262 92.2226 210 95.5811 210H119.253C123.573 210 127.637 209.268 131.257 207.565C134.77 205.913 137.717 203.519 139.834 200.307C141.983 197.071 143.014 193.405 143.014 189.506C143.014 186.195 142.282 182.998 140.591 180.139C139.738 178.689 138.713 177.391 137.525 176.262C138.12 175.49 138.651 174.662 139.113 173.78C140.429 171.298 141.049 168.601 141.049 165.808C141.049 162.108 140.065 158.604 137.922 155.563C135.778 152.496 132.749 150.373 129.277 148.992C125.751 147.583 121.719 147 117.386 147H108.889C108.935 147.401 108.959 147.809 108.959 148.223ZM109.027 193.224H115.6C117.959 193.224 119.728 192.784 120.908 191.904C122.087 191.007 122.677 189.687 122.677 187.944C122.677 186.725 122.399 185.693 121.843 184.846C121.287 184 120.495 183.357 119.467 182.917C118.456 182.477 117.234 182.257 115.802 182.257H109.027V193.224ZM109.027 173.524H114.791C116.021 173.524 117.108 173.33 118.051 172.94C118.995 172.551 119.728 171.993 120.251 171.265C120.79 170.52 121.06 169.615 121.06 168.549C121.06 166.941 120.487 165.714 119.341 164.868C118.195 164.005 116.745 163.573 114.993 163.573H109.027V173.524Z" fill="url(#paint0_linear_976_7659)"/>
<path d="M158.824 147H153.351C150.664 147 148.486 149.191 148.486 151.893V205.107C148.486 207.809 150.664 210 153.351 210H158.824C161.511 210 163.689 207.809 163.689 205.107V151.893C163.689 149.191 161.511 147 158.824 147Z" fill="url(#paint1_linear_976_7659)"/>
<path fill-rule="evenodd" clip-rule="evenodd" d="M222.676 152.505C222.676 149.802 220.497 147.612 217.811 147.612H174.027C171.34 147.612 169.162 149.802 169.162 152.505V156.975C169.162 159.677 171.34 161.868 174.027 161.868H186.797V204.495C186.797 207.198 188.975 209.388 191.662 209.388H200.176C202.862 209.388 205.04 207.198 205.04 204.495V161.868H217.811C220.497 161.868 222.676 159.677 222.676 156.975V152.505Z" fill="url(#paint2_linear_976_7659)"/>
<mask id="mask0_976_7659" style="mask-type:luminance" maskUnits="userSpaceOnUse" x="168" y="147" width="56" height="63">
<path d="M223.283 147H168.554V210H223.283V147Z" fill="white"/>
<path fill-rule="evenodd" clip-rule="evenodd" d="M222.676 152.505C222.676 149.802 220.497 147.612 217.811 147.612H174.027C171.34 147.612 169.162 149.802 169.162 152.505V156.975C169.162 159.677 171.34 161.868 174.027 161.868H186.797V204.495C186.797 207.198 188.975 209.388 191.662 209.388H200.176C202.862 209.388 205.04 207.198 205.04 204.495V161.868H217.811C220.497 161.868 222.676 159.677 222.676 156.975V152.505Z" fill="black"/>
</mask>
<g mask="url(#mask0_976_7659)">
<path d="M186.797 161.868H187.405V161.256H186.797V161.868ZM205.04 161.868V161.256H204.432V161.868H205.04ZM217.81 148.223C220.161 148.223 222.067 150.14 222.067 152.505H223.283C223.283 149.465 220.833 147 217.81 147V148.223ZM174.027 148.223H217.81V147H174.027V148.223ZM169.77 152.505C169.77 150.14 171.676 148.223 174.027 148.223V147C171.004 147 168.554 149.465 168.554 152.505H169.77ZM169.77 156.975V152.505H168.554V156.975H169.77ZM174.027 161.256C171.676 161.256 169.77 159.339 169.77 156.975H168.554C168.554 160.015 171.004 162.479 174.027 162.479V161.256ZM186.797 161.256H174.027V162.479H186.797V161.256ZM187.405 204.495V161.868H186.189V204.495H187.405ZM191.662 208.777C189.311 208.777 187.405 206.86 187.405 204.495H186.189C186.189 207.535 188.639 210 191.662 210V208.777ZM200.175 208.777H191.662V210H200.175V208.777ZM204.432 204.495C204.432 206.86 202.526 208.777 200.175 208.777V210C203.198 210 205.648 207.535 205.648 204.495H204.432ZM204.432 161.868V204.495H205.648V161.868H204.432ZM217.81 161.256H205.04V162.479H217.81V161.256ZM222.067 156.975C222.067 159.339 220.161 161.256 217.81 161.256V162.479C220.833 162.479 223.283 160.015 223.283 156.975H222.067ZM222.067 152.505V156.975H223.283V152.505H222.067Z" fill="url(#paint3_linear_976_7659)"/>
</g>
<path fill-rule="evenodd" clip-rule="evenodd" d="M228.531 150.6C228.285 151.186 228.148 151.829 228.148 152.505V156.975V176.265V180.735V200.025V204.495C228.148 204.664 228.157 204.831 228.173 204.995C228.423 207.463 230.495 209.388 233.013 209.388H240.998H264.027C266.713 209.388 268.892 207.198 268.892 204.495V200.025C268.892 197.323 266.713 195.132 264.027 195.132H245.863V185.628H264.027C266.713 185.628 268.892 183.437 268.892 180.735V176.265C268.892 173.563 266.713 171.372 264.027 171.372H245.863V161.868H264.027C266.713 161.868 268.892 159.677 268.892 156.975V152.505C268.892 149.802 266.713 147.612 264.027 147.612H240.998H233.013C232.057 147.612 231.166 147.889 230.414 148.368C229.581 148.899 228.919 149.677 228.531 150.6Z" fill="url(#paint4_linear_976_7659)"/>
<mask id="mask1_976_7659" style="mask-type:luminance" maskUnits="userSpaceOnUse" x="227" y="147" width="43" height="63">
<path d="M269.5 147H227.541V210H269.5V147Z" fill="white"/>
<path fill-rule="evenodd" clip-rule="evenodd" d="M228.532 150.6C228.286 151.186 228.149 151.829 228.149 152.505V156.975V176.265V180.735V200.025V204.495C228.149 204.664 228.158 204.831 228.174 204.995C228.424 207.463 230.495 209.388 233.014 209.388H240.999H264.028C266.714 209.388 268.893 207.198 268.893 204.495V200.025C268.893 197.323 266.714 195.132 264.028 195.132H245.864V185.628H264.028C266.714 185.628 268.893 183.437 268.893 180.735V176.265C268.893 173.563 266.714 171.372 264.028 171.372H245.864V161.868H264.028C266.714 161.868 268.893 159.677 268.893 156.975V152.505C268.893 149.802 266.714 147.612 264.028 147.612H240.999H233.014C232.058 147.612 231.167 147.889 230.415 148.368C229.582 148.899 228.92 149.677 228.532 150.6Z" fill="black"/>
</mask>
<g mask="url(#mask1_976_7659)">
<path d="M245.863 195.132H245.255C245.255 195.47 245.528 195.744 245.863 195.744V195.132ZM245.863 185.628V185.016C245.528 185.016 245.255 185.29 245.255 185.628H245.863ZM245.863 171.372H245.255C245.255 171.71 245.528 171.984 245.863 171.984V171.372ZM245.863 161.868V161.256C245.528 161.256 245.255 161.53 245.255 161.868H245.863ZM228.757 152.505C228.757 151.913 228.876 151.35 229.092 150.838L227.972 150.362C227.694 151.021 227.541 151.746 227.541 152.505H228.757ZM228.757 156.975V152.505H227.541V156.975H228.757ZM228.757 176.265V156.975H227.541V176.265H228.757ZM228.757 180.735V176.265H227.541V180.735H228.757ZM228.757 200.025V180.735H227.541V200.025H228.757ZM228.757 204.495V200.025H227.541V204.495H228.757ZM228.779 204.934C228.765 204.79 228.757 204.643 228.757 204.495H227.541C227.541 204.685 227.551 204.872 227.569 205.057L228.779 204.934ZM233.014 208.777C230.81 208.777 228.997 207.092 228.779 204.934L227.569 205.057C227.849 207.834 230.18 210 233.014 210V208.777ZM240.998 208.777H233.014V210H240.998V208.777ZM264.028 208.777H240.998V210H264.028V208.777ZM268.284 204.495C268.284 206.86 266.378 208.777 264.028 208.777V210C267.05 210 269.5 207.535 269.5 204.495H268.284ZM268.284 200.025V204.495H269.5V200.025H268.284ZM264.028 195.744C266.378 195.744 268.284 197.661 268.284 200.025H269.5C269.5 196.985 267.05 194.521 264.028 194.521V195.744ZM245.863 195.744H264.028V194.521H245.863V195.744ZM245.255 185.628V195.132H246.471V185.628H245.255ZM264.028 185.016H245.863V186.24H264.028V185.016ZM268.284 180.735C268.284 183.099 266.378 185.016 264.028 185.016V186.24C267.05 186.24 269.5 183.775 269.5 180.735H268.284ZM268.284 176.265V180.735H269.5V176.265H268.284ZM264.028 171.984C266.378 171.984 268.284 173.901 268.284 176.265H269.5C269.5 173.225 267.05 170.76 264.028 170.76V171.984ZM245.863 171.984H264.028V170.76H245.863V171.984ZM245.255 161.868V171.372H246.471V161.868H245.255ZM264.028 161.256H245.863V162.479H264.028V161.256ZM268.284 156.975C268.284 159.339 266.378 161.256 264.028 161.256V162.479C267.05 162.479 269.5 160.015 269.5 156.975H268.284ZM268.284 152.505V156.975H269.5V152.505H268.284ZM264.028 148.223C266.378 148.223 268.284 150.14 268.284 152.505H269.5C269.5 149.465 267.05 147 264.028 147V148.223ZM240.998 148.223H264.028V147H240.998V148.223ZM233.014 148.223H240.998V147H233.014V148.223ZM230.74 148.885C231.398 148.466 232.177 148.223 233.014 148.223V147C231.939 147 230.935 147.312 230.09 147.851L230.74 148.885ZM229.092 150.838C229.431 150.031 230.011 149.349 230.74 148.885L230.09 147.851C229.152 148.448 228.408 149.323 227.972 150.362L229.092 150.838Z" fill="url(#paint5_linear_976_7659)"/>
</g>
</g>
<path d="M132.652 258.484V259.859H127.027V264.391H125.308V259.859H119.745V258.484H132.652ZM123.027 250.828V252.562H129.339V250.828H131.089V257.016H121.308V250.828H123.027ZM123.027 255.609H129.339V253.938H123.027V255.609ZM144.57 250.266V253.547H146.538V254.984H144.57V258.219H142.835V250.266H144.57ZM140.304 251.172V252.578H135.742V256.188C138.398 256.188 139.874 256.086 141.554 255.75L141.742 257.125C139.898 257.531 138.242 257.594 135.163 257.594H134.023V251.172H140.304ZM144.57 258.859V264.203H135.445V258.859H144.57ZM137.163 260.25V262.828H142.851V260.25H137.163ZM150.3 258.531V260.047H152.16V258.531H153.769V263.016C155.425 262.32 156.191 260.891 156.191 259.547V258.422H157.925V259.547C157.925 261.016 158.675 262.438 160.425 263.031L159.535 264.328C158.293 263.883 157.488 263.023 157.05 261.953C156.574 262.992 155.769 263.852 154.597 264.328L153.769 263.094V264.219H148.675V258.531H150.3ZM150.3 262.891H152.16V261.344H150.3V262.891ZM151.019 250.844C152.839 250.844 154.277 251.859 154.644 253.391H157.191V250.266H158.925V257.75H157.191V254.828H154.644C154.3 256.398 152.847 257.438 151.019 257.438C148.847 257.438 147.285 256.078 147.285 254.125C147.285 252.188 148.847 250.844 151.019 250.844ZM151.019 252.281C149.8 252.281 148.941 253 148.941 254.125C148.941 255.266 149.8 256.016 151.019 256.016C152.207 256.016 153.05 255.266 153.066 254.125C153.05 253 152.207 252.281 151.019 252.281ZM172.203 254.266V255.641H162.422V250.781H164.14V254.266H172.203ZM173.656 257.281V258.656H160.75V257.281H173.656ZM172.297 262.656V264.062H162.297V259.906H164.031V262.656H172.297ZM183.398 254.281C183.398 256.594 184.758 259.031 187.039 259.984L186.086 261.359C184.414 260.641 183.195 259.156 182.555 257.359C181.898 259.297 180.664 260.922 179.008 261.703L178.008 260.344C180.242 259.312 181.633 256.688 181.633 254.281V253.094H178.523V251.656H186.492V253.094H183.398V254.281ZM189.82 250.266V264.391H188.07V250.266H189.82ZM197.004 252.281C197.004 254.141 198.16 255.891 200.41 256.594L199.551 257.969C197.918 257.422 196.754 256.352 196.129 254.969C195.481 256.453 194.301 257.633 192.629 258.203L191.754 256.844C194.035 256.062 195.207 254.203 195.207 252.281V250.938H197.004V252.281ZM203.504 259.359V264.391H201.754V260.75H193.863V259.359H203.504ZM203.504 250.266V258.719H201.754V250.266H203.504ZM220.184 250.281V254.719H222.153V256.156H220.184V260.828H218.45V250.281H220.184ZM217.434 251.844V253.234H209.059V251.844H212.387V250.266H214.122V251.844H217.434ZM213.247 253.812C215.278 253.812 216.684 254.891 216.7 256.516C216.684 258.125 215.278 259.188 213.247 259.188C211.2 259.188 209.778 258.125 209.778 256.516C209.778 254.891 211.2 253.812 213.247 253.812ZM213.247 255.156C212.168 255.156 211.465 255.656 211.465 256.516C211.465 257.359 212.168 257.859 213.247 257.844C214.325 257.859 215.043 257.359 215.043 256.516C215.043 255.656 214.325 255.156 213.247 255.156ZM220.747 262.703V264.109H211.137V260H212.872V262.703H220.747ZM238.114 250.266V257.844H236.364V250.266H238.114ZM230.489 258.5V259.953H236.38V258.5H238.114V264.219H228.77V258.5H230.489ZM230.489 262.812H236.38V261.312H230.489V262.812ZM230.411 250.891C232.583 250.875 234.208 252.234 234.208 254.203C234.208 256.125 232.583 257.484 230.411 257.484C228.223 257.484 226.598 256.125 226.598 254.203C226.598 252.234 228.223 250.875 230.411 250.891ZM230.411 252.344C229.177 252.344 228.286 253.062 228.302 254.203C228.286 255.328 229.177 256.047 230.411 256.062C231.63 256.047 232.505 255.328 232.505 254.203C232.505 253.062 231.63 252.344 230.411 252.344Z" fill="#FAFAFA"/>
<defs>
<linearGradient id="paint0_linear_976_7659" x1="116.257" y1="147" x2="116.257" y2="210" gradientUnits="userSpaceOnUse">
<stop stop-color="#FF6914"/>
<stop offset="0.29" stop-color="#FF7528"/>
<stop offset="0.665" stop-color="#FF833D"/>
<stop offset="1" stop-color="#FF8D4C"/>
</linearGradient>
<linearGradient id="paint1_linear_976_7659" x1="156.088" y1="147" x2="156.088" y2="210" gradientUnits="userSpaceOnUse">
<stop stop-color="#FF6914"/>
<stop offset="0.29" stop-color="#FF7528"/>
<stop offset="0.665" stop-color="#FF833D"/>
<stop offset="1" stop-color="#FF8D4C"/>
</linearGradient>
<linearGradient id="paint2_linear_976_7659" x1="195.919" y1="147.612" x2="195.919" y2="209.388" gradientUnits="userSpaceOnUse">
<stop stop-color="#FF6914"/>
<stop offset="0.29" stop-color="#FF7528"/>
<stop offset="0.665" stop-color="#FF833D"/>
<stop offset="1" stop-color="#FF8D4C"/>
</linearGradient>
<linearGradient id="paint3_linear_976_7659" x1="195.919" y1="147.612" x2="195.919" y2="209.388" gradientUnits="userSpaceOnUse">
<stop stop-color="#FF6914"/>
<stop offset="0.29" stop-color="#FF7528"/>
<stop offset="0.665" stop-color="#FF833D"/>
<stop offset="1" stop-color="#FF8D4C"/>
</linearGradient>
<linearGradient id="paint4_linear_976_7659" x1="248.52" y1="147.612" x2="248.52" y2="209.388" gradientUnits="userSpaceOnUse">
<stop stop-color="#FF6914"/>
<stop offset="0.29" stop-color="#FF7528"/>
<stop offset="0.665" stop-color="#FF833D"/>
<stop offset="1" stop-color="#FF8D4C"/>
</linearGradient>
<linearGradient id="paint5_linear_976_7659" x1="248.521" y1="147.612" x2="248.521" y2="209.388" gradientUnits="userSpaceOnUse">
<stop stop-color="#FF6914"/>
<stop offset="0.29" stop-color="#FF7528"/>
<stop offset="0.665" stop-color="#FF833D"/>
<stop offset="1" stop-color="#FF8D4C"/>
</linearGradient>
<clipPath id="clip0_976_7659">
<rect width="180" height="63" fill="white" transform="translate(89.5 147)"/>
</clipPath>
</defs>
</svg>
