<svg width="360" height="416" viewBox="0 0 360 416" fill="none" xmlns="http://www.w3.org/2000/svg">
<g clip-path="url(#clip0_1187_4168)">
<path fill-rule="evenodd" clip-rule="evenodd" d="M109.459 148.223C109.459 153.966 104.831 158.621 99.1216 158.621C99.0251 158.621 98.9288 158.62 98.8329 158.617C99.0216 159.403 99.1216 160.224 99.1216 161.068C99.1216 166.397 95.1363 170.789 90 171.395V203.883C90 207.262 92.7226 210 96.0811 210H119.753C124.073 210 128.137 209.268 131.757 207.565C135.27 205.913 138.217 203.519 140.334 200.307C142.483 197.071 143.514 193.405 143.514 189.506C143.514 186.195 142.782 182.998 141.091 180.139C140.238 178.689 139.213 177.391 138.025 176.262C138.62 175.49 139.151 174.662 139.613 173.78C140.929 171.298 141.549 168.601 141.549 165.808C141.549 162.108 140.565 158.604 138.422 155.563C136.278 152.496 133.249 150.373 129.777 148.992C126.251 147.583 122.219 147 117.886 147H109.389C109.435 147.401 109.459 147.809 109.459 148.223ZM109.527 193.224H116.1C118.459 193.224 120.228 192.784 121.408 191.904C122.587 191.007 123.177 189.687 123.177 187.944C123.177 186.725 122.899 185.693 122.343 184.846C121.787 184 120.995 183.357 119.967 182.917C118.956 182.477 117.734 182.257 116.302 182.257H109.527V193.224ZM109.527 173.524H115.291C116.521 173.524 117.608 173.33 118.551 172.94C119.495 172.551 120.228 171.993 120.751 171.265C121.29 170.52 121.56 169.615 121.56 168.549C121.56 166.941 120.987 165.714 119.841 164.868C118.695 164.005 117.245 163.573 115.493 163.573H109.527V173.524Z" fill="url(#paint0_linear_1187_4168)"/>
<path d="M159.324 147H153.851C151.164 147 148.986 149.191 148.986 151.893V205.107C148.986 207.809 151.164 210 153.851 210H159.324C162.011 210 164.189 207.809 164.189 205.107V151.893C164.189 149.191 162.011 147 159.324 147Z" fill="url(#paint1_linear_1187_4168)"/>
<path fill-rule="evenodd" clip-rule="evenodd" d="M223.176 152.505C223.176 149.803 220.997 147.612 218.311 147.612H174.527C171.84 147.612 169.662 149.803 169.662 152.505V156.975C169.662 159.677 171.84 161.868 174.527 161.868H187.297V204.495C187.297 207.198 189.475 209.389 192.162 209.389H200.676C203.362 209.389 205.54 207.198 205.54 204.495V161.868H218.311C220.997 161.868 223.176 159.677 223.176 156.975V152.505Z" fill="url(#paint2_linear_1187_4168)"/>
<mask id="mask0_1187_4168" style="mask-type:luminance" maskUnits="userSpaceOnUse" x="169" y="147" width="55" height="63">
<path d="M223.783 147H169.054V210H223.783V147Z" fill="white"/>
<path fill-rule="evenodd" clip-rule="evenodd" d="M223.176 152.505C223.176 149.803 220.997 147.612 218.311 147.612H174.527C171.84 147.612 169.662 149.803 169.662 152.505V156.975C169.662 159.677 171.84 161.868 174.527 161.868H187.297V204.495C187.297 207.198 189.475 209.389 192.162 209.389H200.676C203.362 209.389 205.54 207.198 205.54 204.495V161.868H218.311C220.997 161.868 223.176 159.677 223.176 156.975V152.505Z" fill="black"/>
</mask>
<g mask="url(#mask0_1187_4168)">
<path d="M187.297 161.868H187.905V161.256H187.297V161.868ZM205.54 161.868V161.256H204.932V161.868H205.54ZM218.31 148.223C220.661 148.223 222.567 150.14 222.567 152.505H223.783C223.783 149.465 221.333 147 218.31 147V148.223ZM174.527 148.223H218.31V147H174.527V148.223ZM170.27 152.505C170.27 150.14 172.176 148.223 174.527 148.223V147C171.504 147 169.054 149.465 169.054 152.505H170.27ZM170.27 156.975V152.505H169.054V156.975H170.27ZM174.527 161.256C172.176 161.256 170.27 159.339 170.27 156.975H169.054C169.054 160.015 171.504 162.479 174.527 162.479V161.256ZM187.297 161.256H174.527V162.479H187.297V161.256ZM187.905 204.495V161.868H186.689V204.495H187.905ZM192.162 208.777C189.811 208.777 187.905 206.86 187.905 204.495H186.689C186.689 207.535 189.139 210 192.162 210V208.777ZM200.675 208.777H192.162V210H200.675V208.777ZM204.932 204.495C204.932 206.86 203.026 208.777 200.675 208.777V210C203.698 210 206.148 207.535 206.148 204.495H204.932ZM204.932 161.868V204.495H206.148V161.868H204.932ZM218.31 161.256H205.54V162.479H218.31V161.256ZM222.567 156.975C222.567 159.339 220.661 161.256 218.31 161.256V162.479C221.333 162.479 223.783 160.015 223.783 156.975H222.567ZM222.567 152.505V156.975H223.783V152.505H222.567Z" fill="url(#paint3_linear_1187_4168)"/>
</g>
<path fill-rule="evenodd" clip-rule="evenodd" d="M229.031 150.6C228.785 151.186 228.648 151.829 228.648 152.505V156.975V176.265V180.735V200.026V204.495C228.648 204.664 228.657 204.831 228.673 204.996C228.923 207.463 230.995 209.389 233.513 209.389H241.498H264.527C267.213 209.389 269.392 207.198 269.392 204.495V200.026C269.392 197.323 267.213 195.132 264.527 195.132H246.363V185.628H264.527C267.213 185.628 269.392 183.437 269.392 180.735V176.265C269.392 173.563 267.213 171.372 264.527 171.372H246.363V161.868H264.527C267.213 161.868 269.392 159.677 269.392 156.975V152.505C269.392 149.803 267.213 147.612 264.527 147.612H241.498H233.513C232.557 147.612 231.666 147.889 230.914 148.368C230.081 148.899 229.419 149.677 229.031 150.6Z" fill="url(#paint4_linear_1187_4168)"/>
<mask id="mask1_1187_4168" style="mask-type:luminance" maskUnits="userSpaceOnUse" x="228" y="147" width="42" height="63">
<path d="M270 147H228.041V210H270V147Z" fill="white"/>
<path fill-rule="evenodd" clip-rule="evenodd" d="M229.032 150.6C228.786 151.186 228.649 151.829 228.649 152.505V156.975V176.265V180.735V200.026V204.495C228.649 204.664 228.658 204.831 228.674 204.996C228.924 207.463 230.995 209.389 233.514 209.389H241.499H264.528C267.214 209.389 269.393 207.198 269.393 204.495V200.026C269.393 197.323 267.214 195.132 264.528 195.132H246.364V185.628H264.528C267.214 185.628 269.393 183.437 269.393 180.735V176.265C269.393 173.563 267.214 171.372 264.528 171.372H246.364V161.868H264.528C267.214 161.868 269.393 159.677 269.393 156.975V152.505C269.393 149.803 267.214 147.612 264.528 147.612H241.499H233.514C232.558 147.612 231.667 147.889 230.915 148.368C230.082 148.899 229.42 149.677 229.032 150.6Z" fill="black"/>
</mask>
<g mask="url(#mask1_1187_4168)">
<path d="M246.363 195.132H245.755C245.755 195.47 246.028 195.744 246.363 195.744V195.132ZM246.363 185.628V185.016C246.028 185.016 245.755 185.29 245.755 185.628H246.363ZM246.363 171.372H245.755C245.755 171.71 246.028 171.984 246.363 171.984V171.372ZM246.363 161.868V161.256C246.028 161.256 245.755 161.53 245.755 161.868H246.363ZM229.257 152.505C229.257 151.913 229.376 151.35 229.592 150.838L228.472 150.362C228.194 151.021 228.041 151.746 228.041 152.505H229.257ZM229.257 156.975V152.505H228.041V156.975H229.257ZM229.257 176.265V156.975H228.041V176.265H229.257ZM229.257 180.735V176.265H228.041V180.735H229.257ZM229.257 200.025V180.735H228.041V200.025H229.257ZM229.257 204.495V200.025H228.041V204.495H229.257ZM229.279 204.934C229.265 204.79 229.257 204.643 229.257 204.495H228.041C228.041 204.685 228.051 204.872 228.069 205.057L229.279 204.934ZM233.514 208.777C231.31 208.777 229.497 207.092 229.279 204.934L228.069 205.057C228.349 207.834 230.68 210 233.514 210V208.777ZM241.498 208.777H233.514V210H241.498V208.777ZM264.528 208.777H241.498V210H264.528V208.777ZM268.784 204.495C268.784 206.86 266.878 208.777 264.528 208.777V210C267.55 210 270 207.535 270 204.495H268.784ZM268.784 200.025V204.495H270V200.025H268.784ZM264.528 195.744C266.878 195.744 268.784 197.661 268.784 200.025H270C270 196.985 267.55 194.521 264.528 194.521V195.744ZM246.363 195.744H264.528V194.521H246.363V195.744ZM245.755 185.628V195.132H246.971V185.628H245.755ZM264.528 185.016H246.363V186.24H264.528V185.016ZM268.784 180.735C268.784 183.099 266.878 185.016 264.528 185.016V186.24C267.55 186.24 270 183.775 270 180.735H268.784ZM268.784 176.265V180.735H270V176.265H268.784ZM264.528 171.984C266.878 171.984 268.784 173.901 268.784 176.265H270C270 173.225 267.55 170.76 264.528 170.76V171.984ZM246.363 171.984H264.528V170.76H246.363V171.984ZM245.755 161.868V171.372H246.971V161.868H245.755ZM264.528 161.256H246.363V162.479H264.528V161.256ZM268.784 156.975C268.784 159.339 266.878 161.256 264.528 161.256V162.479C267.55 162.479 270 160.015 270 156.975H268.784ZM268.784 152.505V156.975H270V152.505H268.784ZM264.528 148.223C266.878 148.223 268.784 150.14 268.784 152.505H270C270 149.465 267.55 147 264.528 147V148.223ZM241.498 148.223H264.528V147H241.498V148.223ZM233.514 148.223H241.498V147H233.514V148.223ZM231.24 148.885C231.898 148.466 232.677 148.223 233.514 148.223V147C232.439 147 231.435 147.312 230.59 147.851L231.24 148.885ZM229.592 150.838C229.931 150.031 230.511 149.349 231.24 148.885L230.59 147.851C229.652 148.448 228.908 149.323 228.472 150.362L229.592 150.838Z" fill="url(#paint5_linear_1187_4168)"/>
</g>
</g>
<path d="M133.152 258.484V259.859H127.527V264.391H125.808V259.859H120.245V258.484H133.152ZM123.527 250.828V252.562H129.839V250.828H131.589V257.016H121.808V250.828H123.527ZM123.527 255.609H129.839V253.938H123.527V255.609ZM145.07 250.266V253.547H147.038V254.984H145.07V258.219H143.335V250.266H145.07ZM140.804 251.172V252.578H136.242V256.188C138.898 256.188 140.374 256.086 142.054 255.75L142.242 257.125C140.398 257.531 138.742 257.594 135.663 257.594H134.523V251.172H140.804ZM145.07 258.859V264.203H135.945V258.859H145.07ZM137.663 260.25V262.828H143.351V260.25H137.663ZM150.8 258.531V260.047H152.66V258.531H154.269V263.016C155.925 262.32 156.691 260.891 156.691 259.547V258.422H158.425V259.547C158.425 261.016 159.175 262.438 160.925 263.031L160.035 264.328C158.793 263.883 157.988 263.023 157.55 261.953C157.074 262.992 156.269 263.852 155.097 264.328L154.269 263.094V264.219H149.175V258.531H150.8ZM150.8 262.891H152.66V261.344H150.8V262.891ZM151.519 250.844C153.339 250.844 154.777 251.859 155.144 253.391H157.691V250.266H159.425V257.75H157.691V254.828H155.144C154.8 256.398 153.347 257.438 151.519 257.438C149.347 257.438 147.785 256.078 147.785 254.125C147.785 252.188 149.347 250.844 151.519 250.844ZM151.519 252.281C150.3 252.281 149.441 253 149.441 254.125C149.441 255.266 150.3 256.016 151.519 256.016C152.707 256.016 153.55 255.266 153.566 254.125C153.55 253 152.707 252.281 151.519 252.281ZM172.703 254.266V255.641H162.922V250.781H164.64V254.266H172.703ZM174.156 257.281V258.656H161.25V257.281H174.156ZM172.797 262.656V264.062H162.797V259.906H164.531V262.656H172.797ZM183.898 254.281C183.898 256.594 185.258 259.031 187.539 259.984L186.586 261.359C184.914 260.641 183.695 259.156 183.055 257.359C182.398 259.297 181.164 260.922 179.508 261.703L178.508 260.344C180.742 259.312 182.133 256.688 182.133 254.281V253.094H179.023V251.656H186.992V253.094H183.898V254.281ZM190.32 250.266V264.391H188.57V250.266H190.32ZM197.504 252.281C197.504 254.141 198.66 255.891 200.91 256.594L200.051 257.969C198.418 257.422 197.254 256.352 196.629 254.969C195.981 256.453 194.801 257.633 193.129 258.203L192.254 256.844C194.535 256.062 195.707 254.203 195.707 252.281V250.938H197.504V252.281ZM204.004 259.359V264.391H202.254V260.75H194.363V259.359H204.004ZM204.004 250.266V258.719H202.254V250.266H204.004ZM220.684 250.281V254.719H222.653V256.156H220.684V260.828H218.95V250.281H220.684ZM217.934 251.844V253.234H209.559V251.844H212.887V250.266H214.622V251.844H217.934ZM213.747 253.812C215.778 253.812 217.184 254.891 217.2 256.516C217.184 258.125 215.778 259.188 213.747 259.188C211.7 259.188 210.278 258.125 210.278 256.516C210.278 254.891 211.7 253.812 213.747 253.812ZM213.747 255.156C212.668 255.156 211.965 255.656 211.965 256.516C211.965 257.359 212.668 257.859 213.747 257.844C214.825 257.859 215.543 257.359 215.543 256.516C215.543 255.656 214.825 255.156 213.747 255.156ZM221.247 262.703V264.109H211.637V260H213.372V262.703H221.247ZM238.614 250.266V257.844H236.864V250.266H238.614ZM230.989 258.5V259.953H236.88V258.5H238.614V264.219H229.27V258.5H230.989ZM230.989 262.812H236.88V261.312H230.989V262.812ZM230.911 250.891C233.083 250.875 234.708 252.234 234.708 254.203C234.708 256.125 233.083 257.484 230.911 257.484C228.723 257.484 227.098 256.125 227.098 254.203C227.098 252.234 228.723 250.875 230.911 250.891ZM230.911 252.344C229.677 252.344 228.786 253.062 228.802 254.203C228.786 255.328 229.677 256.047 230.911 256.062C232.13 256.047 233.005 255.328 233.005 254.203C233.005 253.062 232.13 252.344 230.911 252.344Z" fill="#FAFAFA"/>
<defs>
<linearGradient id="paint0_linear_1187_4168" x1="116.757" y1="147" x2="116.757" y2="210" gradientUnits="userSpaceOnUse">
<stop stop-color="#FF6914"/>
<stop offset="0.29" stop-color="#FF7528"/>
<stop offset="0.665" stop-color="#FF833D"/>
<stop offset="1" stop-color="#FF8D4C"/>
</linearGradient>
<linearGradient id="paint1_linear_1187_4168" x1="156.588" y1="147" x2="156.588" y2="210" gradientUnits="userSpaceOnUse">
<stop stop-color="#FF6914"/>
<stop offset="0.29" stop-color="#FF7528"/>
<stop offset="0.665" stop-color="#FF833D"/>
<stop offset="1" stop-color="#FF8D4C"/>
</linearGradient>
<linearGradient id="paint2_linear_1187_4168" x1="196.419" y1="147.612" x2="196.419" y2="209.389" gradientUnits="userSpaceOnUse">
<stop stop-color="#FF6914"/>
<stop offset="0.29" stop-color="#FF7528"/>
<stop offset="0.665" stop-color="#FF833D"/>
<stop offset="1" stop-color="#FF8D4C"/>
</linearGradient>
<linearGradient id="paint3_linear_1187_4168" x1="196.419" y1="147.612" x2="196.419" y2="209.388" gradientUnits="userSpaceOnUse">
<stop stop-color="#FF6914"/>
<stop offset="0.29" stop-color="#FF7528"/>
<stop offset="0.665" stop-color="#FF833D"/>
<stop offset="1" stop-color="#FF8D4C"/>
</linearGradient>
<linearGradient id="paint4_linear_1187_4168" x1="249.02" y1="147.612" x2="249.02" y2="209.389" gradientUnits="userSpaceOnUse">
<stop stop-color="#FF6914"/>
<stop offset="0.29" stop-color="#FF7528"/>
<stop offset="0.665" stop-color="#FF833D"/>
<stop offset="1" stop-color="#FF8D4C"/>
</linearGradient>
<linearGradient id="paint5_linear_1187_4168" x1="249.021" y1="147.612" x2="249.021" y2="209.388" gradientUnits="userSpaceOnUse">
<stop stop-color="#FF6914"/>
<stop offset="0.29" stop-color="#FF7528"/>
<stop offset="0.665" stop-color="#FF833D"/>
<stop offset="1" stop-color="#FF8D4C"/>
</linearGradient>
<clipPath id="clip0_1187_4168">
<rect width="180" height="63" fill="white" transform="translate(90 147)"/>
</clipPath>
</defs>
</svg>
